<?xml version="1.0" encoding="utf-8"?>
<!-- Generator: Adobe Illustrator 24.0.3, SVG Export Plug-In . SVG Version: 6.00 Build 0)  -->
<svg version="1.1" id="Слой_1" xmlns="http://www.w3.org/2000/svg" xmlns:xlink="http://www.w3.org/1999/xlink" x="0px" y="0px"
	 viewBox="0 0 168 56" style="enable-background:new 0 0 168 56;" xml:space="preserve">
<style type="text/css">
	.st0{fill:#FCFCF0;stroke:#2D2A26;stroke-width:2;}
	.st1{fill:#2D2A26;}
</style>
<path class="st0" d="M5-0.7H3l1.2,1.6l25,33.8c9.6,12.9,24.8,20.6,41,20.6H85h14.8c16.2,0,31.4-7.7,41-20.6l5-6.8l20-27l1.2-1.6h-2
	H5z"/>
<path class="st1" d="M83.2,33.8l-1.3-0.5l5-12.4l1.3,0.5L83.2,33.8z M91.6,26.3h0.5c0.3,0,0.6,0,0.8-0.1c0.3-0.1,0.5-0.1,0.8-0.3
	c0.2-0.1,0.4-0.3,0.6-0.5c0.1-0.2,0.2-0.5,0.2-0.9c0-0.3,0-0.5-0.1-0.7s-0.2-0.4-0.4-0.5c-0.2-0.1-0.4-0.2-0.6-0.3
	c-0.2,0-0.4,0-0.7,0c-0.5,0-0.9,0.1-1.2,0.4c-0.3,0.3-0.5,0.6-0.6,1.1L89.1,24c0.1-0.4,0.3-0.7,0.5-1s0.5-0.6,0.8-0.8
	c0.3-0.2,0.7-0.4,1.1-0.5s0.8-0.2,1.3-0.2s1,0.1,1.4,0.2s0.8,0.3,1.2,0.6c0.3,0.3,0.6,0.6,0.8,1c0.2,0.4,0.3,0.8,0.3,1.3
	c0,0.6-0.2,1.2-0.6,1.6c-0.4,0.5-0.9,0.8-1.5,0.9l0,0c0.7,0.1,1.3,0.5,1.7,0.9c0.4,0.5,0.7,1.1,0.7,1.8c0,0.6-0.1,1.1-0.4,1.5
	c-0.2,0.4-0.5,0.8-0.9,1.1c-0.4,0.3-0.8,0.5-1.3,0.6s-0.9,0.2-1.4,0.2s-0.9-0.1-1.4-0.2c-0.4-0.1-0.8-0.3-1.2-0.5
	c-0.4-0.2-0.7-0.5-0.9-0.8c-0.3-0.3-0.5-0.7-0.6-1.2l1.8-0.6c0.1,0.4,0.4,0.8,0.8,1.1c0.4,0.3,0.9,0.5,1.5,0.5c0.2,0,0.5,0,0.7-0.1
	c0.3-0.1,0.5-0.2,0.7-0.3c0.2-0.1,0.4-0.3,0.5-0.6c0.1-0.2,0.2-0.5,0.2-0.9s-0.1-0.7-0.3-0.9c-0.2-0.3-0.4-0.5-0.7-0.6
	c-0.3-0.1-0.6-0.3-0.9-0.3c-0.3-0.1-0.6-0.1-0.9-0.1h-0.5C91.6,27.7,91.6,26.3,91.6,26.3z M76.2,26.3h0.5c0.3,0,0.6,0,0.8-0.1
	c0.3-0.1,0.5-0.1,0.8-0.3c0.2-0.1,0.4-0.3,0.6-0.5c0.1-0.2,0.2-0.5,0.2-0.9c0-0.3,0-0.5-0.1-0.7s-0.2-0.4-0.4-0.5
	c-0.2-0.1-0.4-0.2-0.6-0.3c-0.2,0-0.4,0-0.6,0c-0.5,0-0.9,0.1-1.2,0.4c-0.3,0.3-0.5,0.6-0.6,1.1L73.7,24c0.1-0.4,0.3-0.7,0.5-1
	s0.5-0.6,0.8-0.8c0.3-0.2,0.7-0.4,1.1-0.5s0.8-0.2,1.3-0.2s1,0.1,1.4,0.2s0.8,0.3,1.2,0.6c0.3,0.3,0.6,0.6,0.8,1s0.3,0.7,0.3,1.2
	c0,0.6-0.2,1.2-0.6,1.6c-0.4,0.5-0.9,0.8-1.5,0.9l0,0c0.7,0.1,1.3,0.5,1.7,0.9c0.4,0.5,0.7,1.1,0.7,1.8c0,0.6-0.1,1.1-0.4,1.5
	c-0.2,0.4-0.5,0.8-0.9,1.1c-0.4,0.3-0.8,0.5-1.3,0.6c-0.5,0.1-0.9,0.2-1.4,0.2S76.5,33,76,32.9c-0.4-0.1-0.8-0.3-1.2-0.5
	c-0.4-0.2-0.7-0.5-0.9-0.8c-0.3-0.3-0.5-0.7-0.6-1.2l1.8-0.6c0.1,0.4,0.4,0.8,0.8,1.1c0.4,0.3,0.9,0.5,1.5,0.5c0.2,0,0.5,0,0.7-0.1
	c0.3-0.1,0.5-0.2,0.7-0.3c0.2-0.1,0.4-0.3,0.5-0.6c0.1-0.2,0.2-0.5,0.2-0.9s-0.1-0.7-0.3-0.9c-0.2-0.3-0.4-0.5-0.7-0.6
	c-0.3-0.1-0.6-0.3-0.9-0.3c-0.3-0.1-0.6-0.1-0.9-0.1h-0.5L76.2,26.3L76.2,26.3z"/>
</svg>
