<svg width="168" height="56" viewBox="0 0 168 56" fill="none" xmlns="http://www.w3.org/2000/svg">
<path d="M4 -1H2.01479L3.19644 0.595228L28.2049 34.3566C37.8234 47.3417 53.0268 55 69.1863 55H84H98.8137C114.973 55 130.177 47.3417 139.795 34.3566L144.804 27.5952L164.804 0.595228L165.985 -1H164H4Z" fill="#FCFCF0" stroke="#2D2A26" stroke-width="2"/>
<path d="M75.589 23.008L73.349 24.848L72.229 23.52L75.765 20.672H77.509V32H75.589V23.008ZM82.0746 32.1130L80.7466 32.288L85.7386 19.872L87.0666 20.384L82.0746 32.1130ZM90.5014 25.328H91.0134C91.3014 25.328 91.584 25.3067 91.8614 25.264C92.1494 25.2107 92.4107 25.12 92.6454 24.992C92.88 24.864 93.0667 24.6933 93.2054 24.48C93.3547 24.256 93.4294 23.968 93.4294 23.616C93.4294 23.36 93.3814 23.1307 93.2854 22.928C93.1894 22.7253 93.056 22.5547 92.8854 22.416C92.7254 22.2773 92.5334 22.1707 92.3094 22.096C92.096 22.0213 91.872 21.984 91.6374 21.984C91.168 21.984 90.7787 22.1173 90.4694 22.384C90.16 22.6507 89.9467 23.0027 89.8294 23.44L88.0214 22.976C88.1174 22.592 88.2774 22.2453 88.5014 21.936C88.736 21.616 89.0134 21.344 89.3334 21.12C89.664 20.8853 90.032 20.704 90.4374 20.576C90.8427 20.448 91.2694 20.384 91.7174 20.384C92.208 20.384 92.672 20.4533 93.1094 20.592C93.5574 20.72 93.9467 20.9173 94.2774 21.184C94.6187 21.44 94.8854 21.76 95.0774 22.144C95.2694 22.528 95.3654 22.976 95.3654 23.488C95.3654 24.096 95.1787 24.64 94.8054 25.12C94.4427 25.5893 93.952 25.8987 93.3334 26.048V26.08C94.0267 26.2187 94.5867 26.5333 95.0134 27.024C95.4507 27.504 95.6694 28.096 95.6694 28.8C95.6694 29.3867 95.552 29.8987 95.3174 30.336C95.0934 30.7733 94.7894 31.136 94.4054 31.424C94.032 31.712 93.6107 31.9253 93.1414 32.064C92.672 32.2133 92.1974 32.288 91.7174 32.288C91.2374 32.288 90.784 32.2347 90.3574 32.128C89.9307 32.032 89.536 31.8773 89.1734 31.664C88.8214 31.4507 88.5067 31.1733 88.2294 30.832C87.9627 30.4907 87.7547 30.0853 87.6054 29.616L89.3974 29.056C89.536 29.504 89.792 29.8827 90.1654 30.192C90.5494 30.5013 91.0454 30.656 91.6534 30.656C91.8987 30.656 92.144 30.624 92.3894 30.56C92.6454 30.4853 92.8694 30.3733 93.0614 30.224C93.264 30.0747 93.424 29.8827 93.5414 29.648C93.6694 29.4133 93.7334 29.1253 93.7334 28.784C93.7334 28.4213 93.6427 28.1173 93.4614 27.872C93.2907 27.616 93.072 27.4187 92.8054 27.28C92.5387 27.1307 92.24 27.024 91.9094 26.96C91.5894 26.896 91.28 26.864 90.9814 26.864H90.5014V25.328Z" fill="#2D2A26"/>
</svg>
